<svg width="27" height="44" viewBox="0 0 27 44" fill="none" xmlns="http://www.w3.org/2000/svg">
<path fill-rule="evenodd" clip-rule="evenodd" d="M24.5133 1.36101C24.0533 1.298 23.6067 1.2542 23.1736 1.22836L23.1974 0.829071C23.641 0.855534 24.0978 0.90036 24.5676 0.964705L24.5133 1.36101ZM20.487 1.30828C19.5394 1.42942 18.6762 1.6483 17.896 1.9451L17.7538 1.57124C18.5647 1.26275 19.4587 1.03648 20.4363 0.911513L20.487 1.30828ZM15.5651 3.22218C14.8251 3.77927 14.2089 4.42361 13.7144 5.1187L13.3885 4.88681C13.9064 4.15888 14.5511 3.4848 15.3245 2.90261L15.5651 3.22218ZM12.5383 7.49201C12.2674 8.36894 12.1549 9.26012 12.1966 10.1098L11.7971 10.1294C11.753 9.23134 11.8721 8.29361 12.1561 7.37396L12.5383 7.49201ZM12.8617 12.6393C13.2706 13.4114 13.8632 14.0592 14.6351 14.5108L14.4331 14.856C13.5921 14.364 12.9492 13.6592 12.5082 12.8265L12.8617 12.6393ZM18.4671 15.1354C19.0153 15.062 19.5366 15.0289 20.031 15.0327L20.0279 15.4327C19.5535 15.429 19.051 15.4607 18.5202 15.5318C18.0279 15.5978 17.5606 15.6198 17.1189 15.6016L17.1354 15.202C17.5522 15.2191 17.9962 15.1984 18.4671 15.1354ZM23.0887 15.633C24.1283 16.0834 24.9437 16.7615 25.5346 17.5791L25.2104 17.8134C24.6614 17.0538 23.9029 16.4217 22.9297 16.0001L23.0887 15.633ZM26.6511 20.5C26.7732 21.5216 26.6663 22.5879 26.334 23.6067L25.9537 23.4827C26.2685 22.5175 26.3689 21.5097 26.2539 20.5475L26.6511 20.5ZM7.6936 26.5255C6.6425 26.376 5.73199 26.3912 4.94909 26.5384L4.8752 26.1452C5.70845 25.9886 6.66369 25.975 7.74993 26.1295L7.6936 26.5255ZM24.7737 26.3109C24.1083 27.0526 23.2724 27.6904 22.2687 28.1628L22.0984 27.8008C23.0534 27.3514 23.846 26.746 24.4759 26.0438L24.7737 26.3109ZM11.7006 27.6654C11.2456 27.4826 10.8073 27.3217 10.3851 27.1815L10.5111 26.8019C10.9416 26.9448 11.3876 27.1086 11.8497 27.2942C12.3381 27.4904 12.8142 27.6632 13.2779 27.8138L13.1543 28.1943C12.6817 28.0407 12.1971 27.8648 11.7006 27.6654ZM2.53944 27.6826C1.87649 28.2772 1.40685 29.0545 1.10782 29.95L0.728414 29.8233C1.04526 28.8745 1.5488 28.0338 2.27236 27.3848L2.53944 27.6826ZM19.2685 28.9792C18.3197 29.08 17.2835 29.0628 16.161 28.9044L16.2169 28.5084C17.3096 28.6625 18.3128 28.6785 19.2263 28.5814L19.2685 28.9792ZM0.700044 32.6573C0.697183 33.555 0.804403 34.4873 1.00519 35.4081L0.614374 35.4934C0.408065 34.5472 0.297083 33.5858 0.300046 32.6561L0.700044 32.6573ZM1.8538 38.0486C2.23517 38.9309 2.69747 39.748 3.22022 40.4495L2.89949 40.6885C2.35588 39.959 1.87868 39.1143 1.48664 38.2074L1.8538 38.0486ZM5.19928 42.3144C5.60168 42.5524 6.01675 42.719 6.43962 42.8039L6.36084 43.1961C5.88822 43.1012 5.43131 42.9163 4.99569 42.6588L5.19928 42.3144Z" fill="white" stroke="black" stroke-width="0.4" stroke-dasharray="3 3"/>
</svg>
